<svg width="80" height="80" viewBox="0 0 454 424" fill="none" xmlns="http://www.w3.org/2000/svg">
<path d="M111.821 395.487C62.3232 373.217 34.2325 344.149 20.2839 313.429C-49.7914 183.088 158.167 34.6823 207.374 8C208.721 19.873 210.413 29.114 212.396 38.9868C301.821 10.4233 354.165 57.3017 365.874 97.2415C404.032 104.322 431.043 124.775 446.431 165.923C353.821 160.923 372.212 509.423 111.821 395.487Z" fill="#101010"/>
<path d="M185.368 21.4233C185.368 21.4233 176.513 134.502 207.374 197.987M207.374 197.987C242.374 296.987 168.821 405.507 111.821 395.487M207.374 197.987C228.555 170.783 251.538 166.149 320.374 184.487M111.821 395.487C-27.2358 332.923 2.66237 216.708 40.4307 160.923M111.821 395.487C372.212 509.423 353.821 160.923 446.431 165.923M111.821 395.487C-149.179 254.423 147.321 40.5635 207.374 8C208.721 19.873 210.413 29.114 212.396 38.9868M320.374 184.487C359.875 194.82 419.431 131.923 446.431 165.923M320.374 184.487C313.146 150.976 274.616 155.027 243.793 115.487M446.431 165.923C431.043 124.775 404.032 104.322 365.874 97.2415M309.374 84.9867C322.855 97.092 335.276 107.18 344.972 118.987M309.374 84.9867C285.536 70.89 271.617 63.2303 228.858 57.4868C221.425 59.4731 220.316 64.0862 223.327 77.9867M309.374 84.9867C326.619 88.1344 346.734 91.3948 365.874 97.2415M309.374 84.9867C299.78 83.7219 291.498 83.018 283.821 82.8587M243.793 115.487C281.912 145.266 309.041 151.444 362.374 153.423C359.001 139.436 352.897 128.637 344.972 118.987M243.793 115.487C238.524 108.729 233.481 100.697 228.858 90.9867M344.972 118.987C334.677 121.735 322.726 122.639 309.374 121.241M228.858 90.9867C226.937 86.9528 225.089 82.6291 223.327 77.9867M228.858 90.9867C250.292 85.2605 265.296 82.4742 283.821 82.8587M228.858 90.9867C259.01 109.528 286.287 118.825 309.374 121.241M223.327 77.9867C219.13 66.9268 215.423 54.0578 212.396 38.9868M212.396 38.9868C301.821 10.4233 354.165 57.3017 365.874 97.2415M283.821 82.8587C298.404 96.1382 303.789 104.616 309.374 121.241" stroke="#D8C5D4" stroke-width="10"/>
</svg>
